M48
; DRILL file KiCad 10.0.4 date 2026-07-29T08:32:58
; FORMAT={-:-/ absolute / metric / decimal}
; #@! TF.CreationDate,2026-07-29T08:32:58+09:00
; #@! TF.GenerationSoftware,Kicad,Pcbnew,10.0.4
; #@! TF.FileFunction,Plated,1,2,PTH
FMAT,2
METRIC
; #@! TA.AperFunction,Plated,PTH,ViaDrill
T1C0.300
; #@! TA.AperFunction,Plated,PTH,ComponentDrill
T2C0.800
; #@! TA.AperFunction,Plated,PTH,ComponentDrill
T3C1.000
; #@! TA.AperFunction,Plated,PTH,ComponentDrill
T4C1.500
; #@! TA.AperFunction,Plated,PTH,ComponentDrill
T5C1.700
%
G90
G05
T1
X77.595Y-60.76
X77.695Y-50.16
X82.895Y-67.66
X83.095Y-81.86
X84.2Y-41.2
X85.195Y-60.86
X90.395Y-81.46
X94.695Y-47.56
X94.695Y-57.36
X94.795Y-41.06
X102.095Y-69.46
X107.3Y-41.26
X107.595Y-53.36
X114.695Y-63.86
X114.845Y-51.56
X114.845Y-53.41
X114.895Y-55.96
X115.445Y-56.51
X116.945Y-50.36
X117.045Y-41.16
X117.045Y-45.56
X120.195Y-71.16
X120.595Y-81.96
X127.895Y-66.46
X127.995Y-59.76
X128.095Y-53.06
T2
X85.25Y-55.38
X85.25Y-57.98
X87.75Y-55.38
X87.75Y-57.98
X100.815Y-80.36
X101.95Y-57.98
X102.0Y-55.48
X104.45Y-57.98
X104.5Y-55.48
X107.325Y-60.66
X107.325Y-62.66
X110.975Y-80.36
X111.65Y-50.52
X111.65Y-60.68
X114.695Y-72.06
X116.695Y-72.06
X119.02Y-61.12
X119.02Y-66.12
X119.8Y-46.66
X121.8Y-46.66
X125.8Y-49.68
X125.8Y-59.84
T3
X80.695Y-53.86
X83.675Y-76.86
X85.095Y-72.66
X86.215Y-76.86
X88.755Y-76.86
X91.295Y-76.86
X93.835Y-76.86
X96.375Y-76.86
X98.915Y-76.86
X101.455Y-76.86
X103.995Y-76.86
X106.535Y-76.86
X109.075Y-76.86
X111.615Y-76.86
X111.65Y-63.56
X113.695Y-43.46
X114.155Y-76.86
X116.695Y-76.86
X117.995Y-80.56
T4
X87.985Y-47.6
X101.665Y-47.6
T5
X85.445Y-45.06
X85.445Y-50.14
X90.525Y-45.06
X90.525Y-50.14
X99.125Y-45.06
X99.125Y-50.14
X104.205Y-45.06
X104.205Y-50.14
M30
