%TF.GenerationSoftware,KiCad,Pcbnew,10.0.4*%
%TF.CreationDate,2026-07-29T08:32:51+09:00*%
%TF.ProjectId,picoamp,7069636f-616d-4702-9e6b-696361645f70,rev?*%
%TF.SameCoordinates,Original*%
%TF.FileFunction,Soldermask,Bot*%
%TF.FilePolarity,Negative*%
%FSLAX46Y46*%
G04 Gerber Fmt 4.6, Leading zero omitted, Abs format (unit mm)*
G04 Created by KiCad (PCBNEW 10.0.4) date 2026-07-29 08:32:51*
%MOMM*%
%LPD*%
G01*
G04 APERTURE LIST*
G04 Aperture macros list*
%AMRoundRect*
0 Rectangle with rounded corners*
0 $1 Rounding radius*
0 $2 $3 $4 $5 $6 $7 $8 $9 X,Y pos of 4 corners*
0 Add a 4 corners polygon primitive as box body*
4,1,4,$2,$3,$4,$5,$6,$7,$8,$9,$2,$3,0*
0 Add four circle primitives for the rounded corners*
1,1,$1+$1,$2,$3*
1,1,$1+$1,$4,$5*
1,1,$1+$1,$6,$7*
1,1,$1+$1,$8,$9*
0 Add four rect primitives between the rounded corners*
20,1,$1+$1,$2,$3,$4,$5,0*
20,1,$1+$1,$4,$5,$6,$7,0*
20,1,$1+$1,$6,$7,$8,$9,0*
20,1,$1+$1,$8,$9,$2,$3,0*%
G04 Aperture macros list end*
%ADD10C,2.000000*%
%ADD11C,1.600000*%
%ADD12RoundRect,0.250000X0.550000X0.550000X-0.550000X0.550000X-0.550000X-0.550000X0.550000X-0.550000X0*%
%ADD13C,3.200000*%
%ADD14C,2.050000*%
%ADD15C,2.250000*%
%ADD16RoundRect,0.250000X-0.550000X0.550000X-0.550000X-0.550000X0.550000X-0.550000X0.550000X0.550000X0*%
%ADD17R,1.700000X1.700000*%
%ADD18C,1.700000*%
G04 APERTURE END LIST*
D10*
%TO.C,TP3*%
X85094887Y-72660000D03*
%TD*%
D11*
%TO.C,C11*%
X85250000Y-55380000D03*
X87750000Y-55380000D03*
%TD*%
D12*
%TO.C,C5*%
X116694887Y-72060000D03*
D11*
X114694887Y-72060000D03*
%TD*%
D13*
%TO.C,REF\u002A\u002A*%
X76000000Y-79000000D03*
%TD*%
%TO.C,REF\u002A\u002A*%
X76000000Y-42000000D03*
%TD*%
D10*
%TO.C,TP2*%
X80694887Y-53860000D03*
%TD*%
D14*
%TO.C,J1*%
X87985393Y-47600000D03*
D15*
X90525393Y-45060000D03*
X85445393Y-45060000D03*
X90525393Y-50140000D03*
X85445393Y-50140000D03*
%TD*%
D14*
%TO.C,J2*%
X101665393Y-47600000D03*
D15*
X104205393Y-45060000D03*
X99125393Y-45060000D03*
X104205393Y-50140000D03*
X99125393Y-50140000D03*
%TD*%
D11*
%TO.C,R1*%
X125800000Y-49680000D03*
X125800000Y-59840000D03*
%TD*%
D10*
%TO.C,TP4*%
X113694887Y-43460000D03*
%TD*%
%TO.C,TP5*%
X117994887Y-80560000D03*
%TD*%
D16*
%TO.C,C6*%
X107325393Y-60660000D03*
D11*
X107325393Y-62660000D03*
%TD*%
%TO.C,C13*%
X102000000Y-55480000D03*
X104500000Y-55480000D03*
%TD*%
%TO.C,C12*%
X101950000Y-57980000D03*
X104450000Y-57980000D03*
%TD*%
%TO.C,C10*%
X85250000Y-57980000D03*
X87750000Y-57980000D03*
%TD*%
%TO.C,R3*%
X111650000Y-60680000D03*
X111650000Y-50520000D03*
%TD*%
D13*
%TO.C,REF\u002A\u002A*%
X128000000Y-79100000D03*
%TD*%
%TO.C,REF\u002A\u002A*%
X128100000Y-42000000D03*
%TD*%
D11*
%TO.C,C1*%
X119020000Y-66120000D03*
X119020000Y-61120000D03*
%TD*%
D12*
%TO.C,C2*%
X121800000Y-46660000D03*
D11*
X119800000Y-46660000D03*
%TD*%
%TO.C,R2*%
X110974887Y-80360000D03*
X100814887Y-80360000D03*
%TD*%
D17*
%TO.C,J4*%
X116694887Y-76860000D03*
D18*
X114154887Y-76860000D03*
X111614887Y-76860000D03*
X109074887Y-76860000D03*
X106534887Y-76860000D03*
X103994887Y-76860000D03*
X101454887Y-76860000D03*
X98914887Y-76860000D03*
X96374887Y-76860000D03*
X93834887Y-76860000D03*
X91294887Y-76860000D03*
X88754887Y-76860000D03*
X86214887Y-76860000D03*
X83674887Y-76860000D03*
%TD*%
D10*
%TO.C,TP1*%
X111650000Y-63560000D03*
%TD*%
M02*
