%TF.GenerationSoftware,KiCad,Pcbnew,10.0.4*%
%TF.CreationDate,2026-07-29T08:32:51+09:00*%
%TF.ProjectId,picoamp,7069636f-616d-4702-9e6b-696361645f70,rev?*%
%TF.SameCoordinates,Original*%
%TF.FileFunction,Soldermask,Top*%
%TF.FilePolarity,Negative*%
%FSLAX46Y46*%
G04 Gerber Fmt 4.6, Leading zero omitted, Abs format (unit mm)*
G04 Created by KiCad (PCBNEW 10.0.4) date 2026-07-29 08:32:51*
%MOMM*%
%LPD*%
G01*
G04 APERTURE LIST*
G04 Aperture macros list*
%AMRoundRect*
0 Rectangle with rounded corners*
0 $1 Rounding radius*
0 $2 $3 $4 $5 $6 $7 $8 $9 X,Y pos of 4 corners*
0 Add a 4 corners polygon primitive as box body*
4,1,4,$2,$3,$4,$5,$6,$7,$8,$9,$2,$3,0*
0 Add four circle primitives for the rounded corners*
1,1,$1+$1,$2,$3*
1,1,$1+$1,$4,$5*
1,1,$1+$1,$6,$7*
1,1,$1+$1,$8,$9*
0 Add four rect primitives between the rounded corners*
20,1,$1+$1,$2,$3,$4,$5,0*
20,1,$1+$1,$4,$5,$6,$7,0*
20,1,$1+$1,$6,$7,$8,$9,0*
20,1,$1+$1,$8,$9,$2,$3,0*%
G04 Aperture macros list end*
%ADD10RoundRect,0.225000X0.225000X0.250000X-0.225000X0.250000X-0.225000X-0.250000X0.225000X-0.250000X0*%
%ADD11RoundRect,0.150000X0.825000X0.150000X-0.825000X0.150000X-0.825000X-0.150000X0.825000X-0.150000X0*%
%ADD12C,2.000000*%
%ADD13C,1.600000*%
%ADD14RoundRect,0.250000X0.550000X0.550000X-0.550000X0.550000X-0.550000X-0.550000X0.550000X-0.550000X0*%
%ADD15C,3.200000*%
%ADD16RoundRect,0.150000X-0.875000X-0.150000X0.875000X-0.150000X0.875000X0.150000X-0.875000X0.150000X0*%
%ADD17C,2.050000*%
%ADD18C,2.250000*%
%ADD19RoundRect,0.150000X0.587500X0.150000X-0.587500X0.150000X-0.587500X-0.150000X0.587500X-0.150000X0*%
%ADD20RoundRect,0.225000X-0.250000X0.225000X-0.250000X-0.225000X0.250000X-0.225000X0.250000X0.225000X0*%
%ADD21RoundRect,0.250000X-0.550000X0.550000X-0.550000X-0.550000X0.550000X-0.550000X0.550000X0.550000X0*%
%ADD22R,1.700000X1.700000*%
%ADD23C,1.700000*%
G04 APERTURE END LIST*
D10*
%TO.C,C9*%
X88194887Y-69460000D03*
X86644887Y-69460000D03*
%TD*%
%TO.C,C4*%
X118850000Y-59260000D03*
X117300000Y-59260000D03*
%TD*%
D11*
%TO.C,U2*%
X122250000Y-57260000D03*
X122250000Y-55990000D03*
X122250000Y-54720000D03*
X122250000Y-53450000D03*
X117300000Y-53450000D03*
X117300000Y-54720000D03*
X117300000Y-55990000D03*
X117300000Y-57260000D03*
%TD*%
D12*
%TO.C,TP3*%
X85094887Y-72660000D03*
%TD*%
D13*
%TO.C,C11*%
X85250000Y-55380000D03*
X87750000Y-55380000D03*
%TD*%
D14*
%TO.C,C5*%
X116694887Y-72060000D03*
D13*
X114694887Y-72060000D03*
%TD*%
D15*
%TO.C,REF\u002A\u002A*%
X76000000Y-79000000D03*
%TD*%
D16*
%TO.C,U3*%
X90225393Y-52860000D03*
X90225393Y-54130000D03*
X90225393Y-55400000D03*
X90225393Y-56670000D03*
X90225393Y-57940000D03*
X90225393Y-59210000D03*
X90225393Y-60480000D03*
X90225393Y-61750000D03*
X90225393Y-63020000D03*
X90225393Y-64290000D03*
X90225393Y-65560000D03*
X90225393Y-66830000D03*
X90225393Y-68100000D03*
X90225393Y-69370000D03*
X99525393Y-69370000D03*
X99525393Y-68100000D03*
X99525393Y-66830000D03*
X99525393Y-65560000D03*
X99525393Y-64290000D03*
X99525393Y-63020000D03*
X99525393Y-61750000D03*
X99525393Y-60480000D03*
X99525393Y-59210000D03*
X99525393Y-57940000D03*
X99525393Y-56670000D03*
X99525393Y-55400000D03*
X99525393Y-54130000D03*
X99525393Y-52860000D03*
%TD*%
D15*
%TO.C,REF\u002A\u002A*%
X76000000Y-42000000D03*
%TD*%
D12*
%TO.C,TP2*%
X80694887Y-53860000D03*
%TD*%
D17*
%TO.C,J1*%
X87985393Y-47600000D03*
D18*
X90525393Y-45060000D03*
X85445393Y-45060000D03*
X90525393Y-50140000D03*
X85445393Y-50140000D03*
%TD*%
D17*
%TO.C,J2*%
X101665393Y-47600000D03*
D18*
X104205393Y-45060000D03*
X99125393Y-45060000D03*
X104205393Y-50140000D03*
X99125393Y-50140000D03*
%TD*%
D13*
%TO.C,R1*%
X125800000Y-49680000D03*
X125800000Y-59840000D03*
%TD*%
D12*
%TO.C,TP4*%
X113694887Y-43460000D03*
%TD*%
D19*
%TO.C,U1*%
X123620000Y-63920000D03*
X123620000Y-62020000D03*
X121745000Y-62970000D03*
%TD*%
D20*
%TO.C,C8*%
X101685393Y-60460000D03*
X101685393Y-62010000D03*
%TD*%
D12*
%TO.C,TP5*%
X117994887Y-80560000D03*
%TD*%
D21*
%TO.C,C6*%
X107325393Y-60660000D03*
D13*
X107325393Y-62660000D03*
%TD*%
%TO.C,C13*%
X102000000Y-55480000D03*
X104500000Y-55480000D03*
%TD*%
D10*
%TO.C,C7*%
X88185393Y-60440000D03*
X86635393Y-60440000D03*
%TD*%
D13*
%TO.C,C12*%
X101950000Y-57980000D03*
X104450000Y-57980000D03*
%TD*%
%TO.C,C10*%
X85250000Y-57980000D03*
X87750000Y-57980000D03*
%TD*%
%TO.C,R3*%
X111650000Y-60680000D03*
X111650000Y-50520000D03*
%TD*%
D15*
%TO.C,REF\u002A\u002A*%
X128000000Y-79100000D03*
%TD*%
%TO.C,REF\u002A\u002A*%
X128100000Y-42000000D03*
%TD*%
D13*
%TO.C,C1*%
X119020000Y-66120000D03*
X119020000Y-61120000D03*
%TD*%
D14*
%TO.C,C2*%
X121800000Y-46660000D03*
D13*
X119800000Y-46660000D03*
%TD*%
%TO.C,R2*%
X110974887Y-80360000D03*
X100814887Y-80360000D03*
%TD*%
D10*
%TO.C,C3*%
X122800000Y-50660000D03*
X121250000Y-50660000D03*
%TD*%
D22*
%TO.C,J4*%
X116694887Y-76860000D03*
D23*
X114154887Y-76860000D03*
X111614887Y-76860000D03*
X109074887Y-76860000D03*
X106534887Y-76860000D03*
X103994887Y-76860000D03*
X101454887Y-76860000D03*
X98914887Y-76860000D03*
X96374887Y-76860000D03*
X93834887Y-76860000D03*
X91294887Y-76860000D03*
X88754887Y-76860000D03*
X86214887Y-76860000D03*
X83674887Y-76860000D03*
%TD*%
D12*
%TO.C,TP1*%
X111650000Y-63560000D03*
%TD*%
M02*
